<?xml version="1.0" encoding="UTF-8"?>
<svg aria-labelledby="logo-title logo-desc" viewBox="0 0 262 105" version="1.1" xmlns="http://www.w3.org/2000/svg" xmlns:xlink="http://www.w3.org/1999/xlink">
    <title id="logo-title">Frankfurt University Logo</title>
    <desc id="logo-desc">Go to startpage.</desc>
	<a role="link" href="https://frankfurt-university.de">
    <defs>
        <polygon id="path-1" points="0 105 261.668861 105 261.668861 0.117672414 0 0.117672414"></polygon>
    </defs>
		<polygon id="Fill-1" fill="#000000" points="135.997356 30.2679818 135.997356 36.8923861 141.891242 36.8923861 141.891242 38.1575418 135.997356 38.1575418 135.997356 46 134.51341 46 134.51341 29 142.544061 29 142.544061 30.2679818"></polygon>
		<path d="M155.36973,46.3898147 L151.443369,38.6904181 L149.467452,38.6904181 L149.467452,46.3898147 L148.079216,46.3898147 L148.079216,30.0559784 L151.487035,30.0559784 C154.687438,30.0559784 156.144813,31.8817112 156.144813,34.2460216 C156.144813,36.6537802 154.61648,37.965375 152.851619,38.5030474 L157.062723,46.3898147 L155.36973,46.3898147 Z M151.348758,31.2734353 L149.467452,31.2734353 L149.467452,37.4974009 L151.371501,37.4974009 C153.651265,37.4974009 154.639223,36.1161078 154.639223,34.4089526 C154.639223,32.8402888 153.839577,31.2734353 151.348758,31.2734353 Z" id="Fill-2" fill="#000000"></path>
		<path d="M171.917122,46.3876422 C171.515935,44.8669526 171.067442,43.2285905 170.621678,41.7079009 L163.944317,41.7079009 C163.496733,43.2068664 163.027317,44.8922974 162.626129,46.3876422 L161.146011,46.3876422 C162.816261,40.4442802 164.673004,34.9471681 166.624358,30.0556164 L167.965289,30.0556164 C170.151351,35.508375 171.938046,40.9828578 173.466379,46.3876422 L171.917122,46.3876422 Z M170.268706,40.5375129 C169.562761,38.2691509 168.718539,35.7663491 167.869768,33.4020388 C167.659622,32.8163922 167.446747,32.0913491 167.258435,31.5310474 L167.234782,31.5310474 C167.048289,32.1148836 166.812671,32.8408319 166.624358,33.4020388 C165.824713,35.6948405 165.001414,38.1985474 164.296379,40.5375129 L170.268706,40.5375129 Z" id="Fill-4" fill="#000000"></path>
		<polygon id="Fill-6" fill="#000000" points="187.52277 46.3876422 180.209513 31.7881164 180.18677 31.7881164 180.18677 46.3876422 178.84493 46.3876422 178.84493 30.0565216 180.891805 30.0565216 187.968534 44.2134181 188.018569 44.2134181 188.018569 30.0565216 189.35859 30.0565216 189.35859 46.3876422"></polygon>
		<path d="M203.323826,46.3876422 L197.703563,37.823806 L196.692861,38.9009612 L196.692861,46.3876422 L195.306444,46.3876422 L195.306444,30.0565216 L196.692861,30.0565216 L196.692861,37.3341078 C198.832528,34.9471681 201.042243,32.489625 203.158257,30.0565216 L205.015,30.0565216 L198.643306,36.8661336 L205.065035,46.3876422 L203.323826,46.3876422 Z" id="Fill-8" fill="#000000"></path>
		<polygon id="Fill-10" fill="#000000" points="211.735209 31.2737069 211.735209 37.6388793 217.238119 37.6388793 217.238119 38.8545259 211.735209 38.8545259 211.735209 46.3900862 210.347883 46.3900862 210.347883 30.0553448 217.849452 30.0553448 217.849452 31.2737069"></polygon>
		<path d="M233.13324,40.3983879 C233.13324,44.5404569 231.017226,46.598819 227.7959,46.598819 C224.666456,46.598819 222.548622,44.60925 222.548622,40.6789914 L222.548622,30.0567931 L223.938678,30.0567931 L223.938678,40.5377845 C223.938678,43.8136034 225.443358,45.4048966 227.865039,45.4048966 C230.286719,45.4048966 231.789581,43.8136034 231.789581,40.5377845 L231.789581,30.0567931 L233.13324,30.0567931 L233.13324,40.3983879 Z" id="Fill-12" fill="#000000"></path>
		<path d="M246.324213,46.3898147 L242.399671,38.6904181 L240.423754,38.6904181 L240.423754,46.3898147 L239.033699,46.3898147 L239.033699,30.0559784 L242.443338,30.0559784 C245.641921,30.0559784 247.101115,31.8817112 247.101115,34.2460216 C247.101115,36.6537802 245.572782,37.965375 243.807921,38.5030474 L248.017206,46.3898147 L246.324213,46.3898147 Z M242.30506,31.2734353 L240.423754,31.2734353 L240.423754,37.4974009 L242.325983,37.4974009 C244.607567,37.4974009 245.595525,36.1161078 245.595525,34.4089526 C245.595525,32.8402888 244.795879,31.2734353 242.30506,31.2734353 L242.30506,31.2734353 Z" id="Fill-14" fill="#000000"></path>
		<polygon id="Fill-16" fill="#000000" points="256.812673 31.2489052 256.812673 46.3879138 255.399874 46.3879138 255.399874 31.2489052 250.767569 31.2489052 250.767569 30.0567931 261.444978 30.0567931 261.444978 31.2489052"></polygon>
		<path d="M145.361057,69.5897457 C145.361057,73.7300043 143.243224,75.7901767 140.021897,75.7901767 C136.892453,75.7901767 134.776439,73.8006078 134.776439,69.869444 L134.776439,59.2472457 L136.168314,59.2472457 L136.168314,69.7291422 C136.168314,73.004056 137.672994,74.5962543 140.092856,74.5962543 C142.512717,74.5962543 144.017397,73.004056 144.017397,69.7291422 L144.017397,59.2472457 L145.361057,59.2472457 L145.361057,69.5897457 Z" id="Fill-18" fill="#000000"></path>
		<polygon id="Fill-20" fill="#000000" points="159.870399 75.5776422 152.555322 60.9781164 152.532579 60.9781164 152.532579 75.5776422 151.190739 75.5776422 151.190739 59.2474267 153.237614 59.2474267 160.316163 73.4034181 160.360739 73.4034181 160.360739 59.2474267 161.702579 59.2474267 161.702579 75.5776422"></polygon>
		<mask id="mask-2" fill="white">
			<use xlink:href="#path-1"></use>
		</mask>
		<polygon id="Fill-22" fill="#000000" mask="url(#mask-2)" points="168.491472 75.5782759 169.876069 75.5782759 169.876069 59.2480603 168.491472 59.2480603"></polygon>
		<path d="M187.316627,59.2474267 C185.76737,64.7228147 183.955203,70.1728578 181.813717,75.5776422 L180.452773,75.5776422 C178.263981,70.1285043 176.476377,64.6974698 174.948044,59.2474267 L176.50094,59.2474267 C177.629905,63.6456595 179.039974,67.9986336 180.547384,72.2330302 L181.157808,74.1049267 L181.18146,74.1049267 L181.813717,72.2556595 C183.249259,68.1135905 184.682981,63.669194 185.813766,59.2474267 L187.316627,59.2474267 Z" id="Fill-24" fill="#000000" mask="url(#mask-2)"></path>
		<polygon id="Fill-25" fill="#000000" mask="url(#mask-2)" points="192.38942 75.5776422 192.38942 59.2474267 200.077483 59.2474267 200.077483 60.4639784 193.776747 60.4639784 193.776747 66.451694 199.326052 66.451694 199.326052 67.670056 193.776747 67.670056 193.776747 74.3610905 200.196656 74.3610905 200.196656 75.5776422"></polygon>
		<path d="M212.731992,75.5776422 L208.803811,67.880056 L206.827894,67.880056 L206.827894,75.5776422 L205.439658,75.5776422 L205.439658,59.2474267 L208.849297,59.2474267 C212.047881,59.2474267 213.507075,61.0722543 213.507075,63.4338491 C213.507075,65.8452284 211.978742,67.1532026 210.213881,67.6926853 L214.421346,75.5776422 L212.731992,75.5776422 Z M208.711019,60.4639784 L206.827894,60.4639784 L206.827894,66.6888491 L208.732853,66.6888491 C211.013526,66.6888491 212.001485,65.3057457 212.001485,63.5985905 C212.001485,62.0299267 211.201839,60.4639784 208.711019,60.4639784 L208.711019,60.4639784 Z" id="Fill-26" fill="#000000" mask="url(#mask-2)"></path>
		<path d="M221.006552,75.8109957 C220.041337,75.8109957 218.98424,75.6480647 217.996281,75.3457371 L218.256462,74.0323319 C219.24442,74.3609095 220.229649,74.5500905 221.334962,74.5500905 C223.381837,74.5500905 224.58176,73.3090991 224.58176,71.4372026 C224.58176,69.5399612 223.264483,68.7443147 221.40774,67.6219009 C219.291726,66.3827198 218.139108,65.2621164 218.139108,63.1313405 C218.139108,60.7444009 219.926712,59.0372457 222.725017,59.0372457 C223.476448,59.0372457 224.512622,59.1766422 225.146698,59.3866422 L224.889247,60.603194 C224.181483,60.3950043 223.33726,60.2519871 222.557628,60.2519871 C220.560788,60.2519871 219.621045,61.5400474 219.621045,63.0145733 C219.621045,64.8620302 220.911941,65.6812112 222.697726,66.7592716 C224.958385,68.0925905 226.086441,69.2593578 226.086441,71.3204353 C226.086441,74.0585819 224.15874,75.8109957 221.006552,75.8109957" id="Fill-27" fill="#000000" mask="url(#mask-2)"></path>
		<polygon id="Fill-28" fill="#000000" mask="url(#mask-2)" points="231.744458 75.5782759 233.131785 75.5782759 233.131785 59.2480603 231.744458 59.2480603"></polygon>
		<polygon id="Fill-29" fill="#000000" mask="url(#mask-2)" points="243.150828 60.4389957 243.150828 75.5780043 241.73621 75.5780043 241.73621 60.4389957 237.105724 60.4389957 237.105724 59.2477888 247.783134 59.2477888 247.783134 60.4389957"></polygon>
		<path d="M261.512298,59.2474267 C260.080395,62.2191078 258.481103,65.2831164 256.341437,68.4657026 L256.341437,75.5776422 L254.952291,75.5776422 L254.952291,68.4657026 C252.955451,65.4704871 251.259728,62.3603147 249.78143,59.2474267 L251.35434,59.2474267 C252.578826,61.9611336 254.106249,64.887556 255.753756,67.3659181 C257.28027,64.8622112 258.878652,61.7963922 259.963041,59.2474267 L261.512298,59.2474267 Z" id="Fill-30" fill="#000000" mask="url(#mask-2)"></path>
		<path d="M50.9964806,105.000181 C46.4815292,105.000181 44.3655153,101.446474 44.3655153,96.7441034 C44.3655153,91.7584138 46.7171472,88.226431 51.1847931,88.226431 C55.6306056,88.226431 57.8157583,91.8063879 57.8157583,96.4861293 C57.8157583,101.492638 55.4877792,105.000181 50.9964806,105.000181 M50.9737375,89.4429828 C47.3057375,89.4429828 45.8711056,92.7658707 45.8711056,96.4861293 C45.8711056,100.672552 47.3757861,103.78544 51.2075361,103.78544 C54.9228417,103.78544 56.3110778,100.416388 56.3110778,96.7441034 C56.3110778,92.5540603 54.7827444,89.4429828 50.9737375,89.4429828" id="Fill-31" fill="#000000" mask="url(#mask-2)"></path>
		<polygon id="Fill-32" fill="#000000" mask="url(#mask-2)" points="63.2483465 89.6528922 63.2483465 96.0171595 68.7503465 96.0171595 68.7503465 97.2337112 63.2483465 97.2337112 63.2483465 104.768366 61.8619299 104.768366 61.8619299 88.4381509 69.3616799 88.4381509 69.3616799 89.6528922"></polygon>
		<path d="M88.0330007,104.768547 C87.6336326,103.246047 87.1860493,101.609496 86.7393757,100.088806 L80.0611049,100.088806 C79.6144313,101.585961 79.1441049,103.271392 78.7447368,104.768547 L77.2627993,104.768547 C78.9330493,98.823375 80.7907021,93.3262629 82.742966,88.4383319 L84.0829868,88.4383319 C86.2690493,93.888375 88.054834,99.3619526 89.5849868,104.768547 L88.0330007,104.768547 Z M86.3864035,98.9184181 C85.6822785,96.650056 84.8335076,94.145444 83.9883757,91.782944 C83.7764104,91.1982026 83.5644451,90.4731595 83.3770424,89.9110474 L83.3542993,89.9110474 C83.1650771,90.4957888 82.9312785,91.2208319 82.742966,91.782944 C81.9433201,94.0757457 81.1182021,96.5794526 80.4140771,98.9184181 L86.3864035,98.9184181 Z" id="Fill-33" fill="#000000" mask="url(#mask-2)"></path>
		<path d="M97.231475,98.1477543 L94.9971972,98.1477543 L94.9971972,104.768185 L93.6089611,104.768185 L93.6089611,88.4379698 L97.1605167,88.4379698 C97.8191556,88.4379698 98.4541417,88.5076681 98.9936069,88.6470647 C100.923128,89.1630129 102.122142,90.8692629 102.122142,93.1177112 C102.122142,96.135556 100.310885,98.1477543 97.231475,98.1477543 M98.4541417,89.8174526 C98.0065583,89.7006853 97.4425306,89.6527112 96.9949472,89.6527112 L94.9971972,89.6527112 L94.9971972,96.9529267 L97.3715722,96.9529267 C99.4648431,96.9529267 100.616551,95.4784009 100.616551,93.2326681 C100.616551,91.5255129 99.7932528,90.192194 98.4541417,89.8174526" id="Fill-34" fill="#000000" mask="url(#mask-2)"></path>
		<path d="M110.555722,98.1477543 L108.323263,98.1477543 L108.323263,104.768185 L106.935027,104.768185 L106.935027,88.4379698 L110.486583,88.4379698 C111.144312,88.4379698 111.780208,88.5076681 112.319673,88.6470647 C114.249194,89.1630129 115.448208,90.8692629 115.448208,93.1177112 C115.448208,96.135556 113.636951,98.1477543 110.555722,98.1477543 M111.780208,89.8174526 C111.332624,89.7006853 110.767687,89.6527112 110.321013,89.6527112 L108.323263,89.6527112 L108.323263,96.9529267 L110.697638,96.9529267 C112.790909,96.9529267 113.942617,95.4784009 113.942617,93.2326681 C113.942617,91.5255129 113.119319,90.192194 111.780208,89.8174526" id="Fill-35" fill="#000000" mask="url(#mask-2)"></path>
		<polygon id="Fill-36" fill="#000000" mask="url(#mask-2)" points="119.350916 104.768547 119.350916 88.4383319 120.737333 88.4383319 120.737333 103.527556 126.664173 103.527556 126.664173 104.768547"></polygon>
		<polygon id="Fill-37" fill="#000000" mask="url(#mask-2)" points="129.699097 104.768276 131.084604 104.768276 131.084604 88.4380603 129.699097 88.4380603"></polygon>
		<polygon id="Fill-38" fill="#000000" mask="url(#mask-2)" points="135.975999 104.768547 135.975999 88.4383319 143.662242 88.4383319 143.662242 89.6530733 137.361506 89.6530733 137.361506 95.6425991 142.912631 95.6425991 142.912631 96.8609612 137.361506 96.8609612 137.361506 103.551996 143.781415 103.551996 143.781415 104.768547"></polygon>
		<path d="M152.059615,104.768547 L148.036823,104.768547 L148.036823,88.4383319 L152.317066,88.4383319 C156.880233,88.4383319 159.255517,91.6435474 159.255517,96.3676422 C159.255517,101.817685 156.714663,104.768547 152.059615,104.768547 M152.223365,89.6530733 L149.425969,89.6530733 L149.425969,103.551996 L152.199712,103.551996 C155.915017,103.551996 157.750837,101.353332 157.750837,96.4382457 C157.750837,92.5541509 156.057844,89.6530733 152.223365,89.6530733" id="Fill-39" fill="#000000" mask="url(#mask-2)"></path>
		<path d="M171.211724,105.000181 C170.247418,105.000181 169.187592,104.83725 168.200543,104.534922 L168.463453,103.223328 C169.449592,103.551905 170.434821,103.739276 171.540133,103.739276 C173.587008,103.739276 174.785112,102.498284 174.785112,100.626388 C174.785112,98.7309569 173.467835,97.9353103 171.612001,96.8128966 C169.495078,95.5737155 168.344279,94.4513017 168.344279,92.3223362 C168.344279,89.9353966 170.131883,88.226431 172.928369,88.226431 C173.681619,88.226431 174.715974,88.3658276 175.351869,88.5776379 L175.092599,89.7923793 C174.386654,89.5841897 173.539703,89.4429828 172.7628,89.4429828 C170.767779,89.4429828 169.824397,90.7310431 169.824397,92.2037586 C169.824397,94.0512155 171.118932,94.8703966 172.904717,95.9484569 C175.163557,97.2817759 176.289793,98.4503534 176.289793,100.50781 C176.289793,103.246862 174.363911,105.000181 171.211724,105.000181" id="Fill-40" fill="#000000" mask="url(#mask-2)"></path>
		<path d="M189.670897,103.995983 C188.519189,104.580724 187.224654,104.931026 185.836418,104.931026 C181.746307,104.931026 179.184529,101.983784 179.184529,96.7880948 C179.184529,91.664819 181.698092,88.2740431 185.886453,88.2740431 C187.249217,88.2740431 188.400925,88.5528362 189.576286,89.1384828 L189.083217,90.2608966 C188.048862,89.7711983 187.014508,89.5132241 185.767279,89.5132241 C182.545953,89.5132241 180.711953,92.3916724 180.711953,96.6251638 C180.711953,101.142879 182.665126,103.690034 186.050203,103.690034 C187.27196,103.690034 188.375453,103.317103 189.271529,102.873569 L189.670897,103.995983 Z" id="Fill-41" fill="#000000" mask="url(#mask-2)"></path>
		<polygon id="Fill-42" fill="#000000" mask="url(#mask-2)" points="194.178389 104.768276 195.567535 104.768276 195.567535 88.4380603 194.178389 88.4380603"></polygon>
		<polygon id="Fill-43" fill="#000000" mask="url(#mask-2)" points="200.887863 104.768547 200.887863 88.4383319 208.575926 88.4383319 208.575926 89.6530733 202.27519 89.6530733 202.27519 95.6425991 207.824495 95.6425991 207.824495 96.8609612 202.27519 96.8609612 202.27519 103.551996 208.695099 103.551996 208.695099 104.768547"></polygon>
		<polygon id="Fill-44" fill="#000000" mask="url(#mask-2)" points="221.937653 104.768547 214.624396 90.1672112 214.601653 90.1672112 214.601653 104.768547 213.261632 104.768547 213.261632 88.4383319 215.306688 88.4383319 222.383417 102.592513 222.431632 102.592513 222.431632 88.4383319 223.771653 88.4383319 223.771653 104.768547"></polygon>
		<path d="M238.280631,103.995983 C237.127103,104.580724 235.835297,104.931026 234.444332,104.931026 C230.354221,104.931026 227.792443,101.983784 227.792443,96.7880948 C227.792443,91.664819 230.307825,88.2740431 234.494367,88.2740431 C235.85895,88.2740431 237.010658,88.5528362 238.18511,89.1384828 L237.69295,90.2608966 C236.658596,89.7711983 235.622422,89.5132241 234.377013,89.5132241 C231.155686,89.5132241 229.319867,92.3916724 229.319867,96.6251638 C229.319867,101.142879 231.27304,103.690034 234.659936,103.690034 C235.879874,103.690034 236.987006,103.317103 237.881263,102.873569 L238.280631,103.995983 Z" id="Fill-45" fill="#000000" mask="url(#mask-2)"></path>
		<polygon id="Fill-46" fill="#000000" mask="url(#mask-2)" points="242.528942 104.768547 242.528942 88.4383319 250.217005 88.4383319 250.217005 89.6530733 243.916269 89.6530733 243.916269 95.6425991 249.465574 95.6425991 249.465574 96.8609612 243.916269 96.8609612 243.916269 103.551996 250.336178 103.551996 250.336178 104.768547"></polygon>
		<path d="M256.58879,105.000181 C255.625394,105.000181 254.566478,104.83725 253.578519,104.534922 L253.8387,103.223328 C254.827568,103.551905 255.813707,103.739276 256.919019,103.739276 C258.964075,103.739276 260.165818,102.498284 260.165818,100.626388 C260.165818,98.7309569 258.846721,97.9353103 256.989978,96.8128966 C254.873964,95.5737155 253.723165,94.4513017 253.723165,92.3223362 C253.723165,89.9353966 255.50895,88.226431 258.307256,88.226431 C259.060506,88.226431 260.095769,88.3658276 260.730756,88.5776379 L260.471485,89.7923793 C259.763721,89.5841897 258.920408,89.4429828 258.141686,89.4429828 C256.143026,89.4429828 255.205103,90.7310431 255.205103,92.2037586 C255.205103,94.0512155 256.495999,94.8703966 258.281783,95.9484569 C260.542443,97.2817759 261.668679,98.4503534 261.668679,100.50781 C261.668679,103.246862 259.742797,105.000181 256.58879,105.000181" id="Fill-47" fill="#000000" mask="url(#mask-2)"></path>
		<polygon id="Fill-48" fill="#92C4E0" mask="url(#mask-2)" points="70.1295764 75.5828017 85.6339722 75.5828017 85.6339722 0.117672414 70.1295764 0.117672414"></polygon>
		<polygon id="Fill-49" fill="#92C4E0" mask="url(#mask-2)" points="95.9493125 75.5828017 111.452799 75.5828017 111.452799 14.0301724 95.9493125 14.0301724"></polygon>
		<polygon id="Fill-50" fill="#008DC7" mask="url(#mask-2)" points="92.2413757 73.8522026 88.6507021 74.8035388 88.6507021 0.851857759 92.2413757 1.81496121"></polygon>
		<polygon id="Fill-51" fill="#008DC7" mask="url(#mask-2)" points="118.16664 73.8503922 114.469528 74.8089698 114.469528 14.8177629 118.16664 15.8007802"></polygon>
		<path d="M120.421386,51.903944 L120.421386,55.2856681 C142.475782,53.4472629 164.068949,52.2913578 182.926581,52.4841595 C165.718275,51.4920905 143.600199,50.9154957 120.421386,51.903944" id="Fill-52" fill="#92C4E0" mask="url(#mask-2)"></path>
		<path d="M36.1823819,79.1929914 C20.40325,74.8029052 21.8014931,69.3637241 42.1929167,64.1671293 L42.1929167,58.4057069 C6.60276389,64.5970862 -9.05082639,72.6431638 5.28730556,78.287819 C18.1580556,83.9216121 56.7448333,85.086569 98.3782708,82.4217414 C71.9381042,81.8026034 49.8145694,81.8324741 36.1823819,79.1929914" id="Fill-53" fill="#92C4E0" mask="url(#mask-2)"></path>
		<polygon id="Fill-54" fill="#92C4E0" mask="url(#mask-2)" points="44.31075 75.5755603 59.8151458 75.5755603 59.8151458 27.43125 44.31075 27.43125"></polygon>
		<polygon id="Fill-55" fill="#008DC7" mask="url(#mask-2)" points="66.4936896 73.7778879 62.8320576 74.807069 62.8320576 28.1834483 66.4936896 29.2008621"></polygon>
	</a>
</svg>
